<?xml version="1.0" standalone="no"?>
<!DOCTYPE svg PUBLIC "-//W3C//DTD SVG 20010904//EN"
 "http://www.w3.org/TR/2001/REC-SVG-20010904/DTD/svg10.dtd">
<svg version="1.0" xmlns="http://www.w3.org/2000/svg"
 width="1024" height="1024" viewBox="0 0 1024 1024"
 preserveAspectRatio="xMidYMid meet">

<g transform="translate(0.000000,1024.000000) scale(0.100000,-0.100000)"
fill="#000000" stroke="none">
<path d="M4773 8749 c-11 -11 -65 -14 -110 -5 -18 3 -33 2 -33 -3 0 -5 -40 -7
-90 -6 -49 2 -92 0 -95 -4 -6 -11 -72 -12 -100 -1 -14 5 -25 6 -25 1 0 -5 -20
-8 -45 -6 -25 1 -48 -1 -50 -5 -3 -4 -15 -5 -29 -3 -13 3 -27 0 -31 -7 -5 -8
-10 -8 -21 1 -11 9 -14 9 -14 0 0 -8 -5 -9 -19 -1 -13 7 -22 7 -26 0 -4 -7
-12 -7 -24 0 -10 5 -21 7 -24 3 -7 -7 -42 -12 -114 -17 -29 -3 -58 -8 -64 -12
-7 -4 -9 -3 -6 3 4 6 -9 5 -31 -3 -21 -7 -58 -15 -83 -19 -24 -3 -55 -8 -69
-10 -14 -2 -42 -6 -64 -10 -21 -3 -41 -7 -45 -9 -3 -3 -26 -7 -51 -11 -24 -4
-52 -11 -62 -16 -10 -5 -18 -7 -18 -5 0 3 -11 1 -24 -4 -16 -6 -26 -5 -28 1
-2 6 -11 7 -21 4 -9 -4 -15 -11 -12 -15 3 -5 -3 -9 -12 -9 -35 0 -73 -8 -86
-20 -8 -6 -17 -8 -20 -4 -4 3 -7 2 -7 -4 0 -5 -6 -10 -12 -11 -15 -1 -53 -10
-53 -12 0 -1 -8 -3 -17 -6 -32 -7 -43 -11 -71 -22 -16 -7 -35 -12 -43 -12 -8
0 -13 -4 -9 -9 3 -6 -3 -8 -14 -6 -11 2 -22 -2 -24 -9 -3 -9 -15 -12 -31 -9
-18 4 -26 1 -26 -8 0 -11 -2 -11 -10 1 -8 13 -10 13 -10 -2 0 -10 -9 -22 -20
-28 -15 -8 -20 -8 -20 1 0 7 -8 5 -20 -6 -11 -10 -20 -14 -20 -10 0 4 -10 0
-22 -11 -13 -12 -18 -13 -13 -4 6 11 3 10 -12 -2 -11 -10 -29 -18 -40 -18 -12
0 -23 -7 -27 -15 -3 -8 -13 -15 -21 -15 -9 0 -14 -4 -11 -9 4 -5 -4 -7 -16 -3
-14 3 -19 2 -14 -6 7 -11 -28 -32 -46 -28 -4 0 -14 -8 -22 -19 -9 -11 -16 -14
-16 -7 0 15 -20 16 -20 1 0 -16 -47 -59 -55 -51 -4 4 -11 -1 -16 -11 -6 -9
-16 -17 -24 -17 -8 0 -21 -10 -30 -22 -8 -13 -18 -22 -20 -20 -16 8 -37 -2
-63 -28 -17 -16 -32 -30 -34 -30 -3 0 -28 -22 -57 -50 -34 -32 -50 -54 -45
-62 6 -9 3 -9 -9 1 -9 7 -18 11 -18 7 -1 -3 -2 -10 -3 -15 0 -5 -21 -33 -46
-62 -25 -29 -47 -55 -50 -59 -3 -3 -13 -9 -23 -13 -10 -4 -16 -11 -13 -15 3
-5 -3 -18 -13 -28 -10 -11 -17 -29 -16 -41 1 -15 -3 -19 -13 -15 -10 3 -13 1
-8 -6 3 -6 1 -14 -4 -17 -6 -4 -15 -18 -20 -31 -5 -13 -17 -24 -25 -24 -10 0
-15 -7 -13 -17 2 -10 -2 -23 -10 -28 -7 -6 -14 -20 -15 -32 0 -12 -3 -20 -5
-18 -5 5 -45 -52 -55 -78 -4 -10 -3 -16 2 -13 5 4 7 -3 4 -14 -3 -11 -9 -20
-14 -20 -10 0 -36 -55 -44 -97 -3 -17 -15 -41 -26 -54 -15 -18 -17 -25 -6 -37
7 -10 8 -13 1 -9 -7 4 -17 0 -24 -8 -10 -12 -10 -15 0 -15 10 0 10 -3 0 -15
-7 -8 -9 -15 -5 -15 4 0 1 -8 -6 -17 -12 -14 -12 -16 0 -8 10 6 8 -3 -6 -26
-11 -19 -25 -33 -32 -31 -8 1 -9 -7 -5 -24 4 -17 3 -25 -3 -21 -5 3 -9 -8 -8
-26 2 -32 -12 -88 -25 -97 -12 -9 -19 -40 -9 -40 6 0 7 -5 4 -11 -7 -10 -13
-40 -19 -89 -2 -14 -9 -24 -16 -22 -6 1 -10 -3 -7 -10 2 -7 0 -23 -4 -36 -6
-15 -5 -21 1 -17 6 3 10 2 10 -4 0 -5 -5 -13 -11 -17 -6 -3 -8 -17 -5 -30 4
-16 2 -24 -6 -24 -14 0 -18 -53 -6 -65 4 -4 2 -17 -4 -29 -11 -21 -19 -52 -21
-93 -1 -11 -5 -19 -10 -16 -4 2 -7 -3 -7 -12 0 -9 4 -14 8 -11 5 3 4 -15 -2
-39 -7 -24 -11 -62 -11 -84 0 -23 -3 -41 -8 -41 -5 0 -7 -15 -4 -32 2 -18 1
-43 -4 -56 -6 -17 -6 -21 3 -16 7 5 8 3 3 -5 -4 -7 -10 -36 -12 -65 -3 -28
-10 -57 -15 -63 -6 -7 -7 -21 -3 -30 5 -10 8 -20 7 -23 0 -3 -3 -25 -7 -50 -4
-25 -8 -46 -10 -48 -2 -2 1 -17 5 -33 5 -17 5 -31 -1 -35 -5 -3 -7 -9 -4 -14
3 -5 1 -12 -5 -15 -7 -4 -7 -12 -2 -18 9 -13 8 -55 -3 -232 -4 -60 -8 -155
-10 -210 -2 -55 -4 -104 -5 -110 -1 -5 1 -61 3 -122 2 -62 1 -113 -3 -113 -8
0 -6 -37 5 -70 4 -12 3 -20 -1 -17 -5 3 -8 -9 -7 -26 1 -18 2 -32 4 -32 1 0 3
-44 4 -97 2 -56 -1 -98 -7 -98 -5 0 -6 -6 -1 -12 4 -7 9 -26 10 -43 8 -161 9
-236 2 -241 -5 -3 -3 -14 5 -25 9 -14 11 -31 6 -55 -4 -18 -5 -34 0 -34 4 0 6
-29 4 -65 -2 -36 1 -65 5 -65 5 0 11 -11 13 -24 4 -17 1 -23 -9 -19 -7 3 -13
1 -13 -5 0 -5 6 -12 14 -15 13 -5 14 -46 1 -66 -3 -6 -1 -11 6 -11 8 0 7 -5
-2 -17 -10 -11 -10 -14 -1 -9 8 5 12 1 12 -13 0 -10 3 -27 7 -37 4 -12 3 -15
-5 -10 -9 5 -9 0 -1 -21 6 -15 8 -42 4 -60 -3 -17 -1 -34 4 -38 6 -3 8 -12 4
-21 -3 -8 3 -21 13 -30 18 -14 18 -14 0 -8 -16 6 -17 4 -11 -17 4 -13 9 -42
11 -64 1 -22 3 -44 3 -48 1 -5 5 -6 10 -3 5 3 8 -16 8 -44 -1 -28 1 -51 5 -53
7 -2 17 -40 23 -82 1 -11 5 -27 8 -35 4 -8 5 -24 3 -35 -2 -11 3 -29 11 -41 7
-11 10 -24 6 -27 -3 -4 -1 -7 6 -7 7 0 11 -6 8 -12 -2 -7 2 -27 9 -44 7 -17
10 -34 7 -38 -4 -3 -1 -6 5 -6 7 0 12 -13 12 -29 0 -17 5 -33 11 -37 6 -3 9
-15 6 -25 -3 -10 1 -23 8 -29 7 -6 13 -22 13 -37 0 -15 5 -29 11 -31 6 -2 11
-10 11 -18 0 -8 4 -14 10 -14 5 0 7 -7 4 -15 -4 -10 0 -15 11 -15 9 0 13 -4
10 -10 -3 -5 1 -20 9 -32 9 -12 16 -31 16 -41 0 -10 4 -16 9 -13 5 4 7 -3 4
-14 -3 -12 0 -20 7 -20 7 0 10 -7 7 -14 -4 -9 1 -17 12 -21 9 -3 23 -21 30
-40 7 -19 18 -35 26 -35 19 0 44 -38 40 -61 -2 -11 0 -17 6 -14 5 4 9 1 9 -6
0 -6 8 -19 18 -28 22 -21 57 -74 54 -83 -1 -5 4 -8 12 -8 8 0 22 -10 30 -22 9
-12 16 -19 16 -15 0 4 38 -30 85 -75 47 -46 88 -82 92 -81 5 1 22 -9 39 -22
17 -13 34 -21 38 -18 3 4 6 0 6 -8 0 -8 14 -23 30 -32 17 -10 30 -15 30 -11 0
4 9 -5 21 -20 11 -14 24 -24 29 -21 4 3 14 -3 21 -12 12 -14 12 -16 0 -8 -9 5
-12 4 -8 -3 4 -5 16 -8 27 -5 12 3 20 0 20 -6 0 -7 -6 -9 -12 -5 -7 4 -10 4
-6 -1 4 -4 24 -9 44 -11 20 -2 47 -10 61 -19 51 -34 116 -64 124 -59 5 3 9 0
9 -5 0 -6 16 -11 35 -11 24 0 35 -5 35 -15 0 -8 3 -14 8 -13 17 5 73 -13 67
-22 -3 -6 1 -7 10 -4 8 4 22 0 31 -7 9 -7 28 -15 42 -17 15 -2 30 -8 33 -14 4
-6 11 -8 17 -4 6 3 13 2 17 -4 3 -5 11 -10 16 -10 6 0 7 6 3 13 -5 7 -1 7 10
-2 10 -8 25 -16 34 -17 16 -1 43 -8 142 -35 25 -7 48 -17 51 -22 4 -5 10 -4
14 3 6 9 9 9 15 -1 5 -7 30 -13 62 -14 29 -1 63 -7 76 -14 12 -6 27 -9 32 -6
6 3 10 0 10 -7 1 -8 7 -5 17 7 11 14 14 15 10 4 -4 -12 0 -17 16 -16 12 0 49
-5 82 -12 33 -6 78 -13 100 -15 22 -2 53 -8 68 -14 15 -7 38 -11 50 -11 12 0
37 -2 54 -4 18 -3 35 -1 38 4 4 5 13 9 21 9 8 0 13 -4 10 -9 -3 -4 5 -7 17 -7
12 1 28 -3 36 -8 11 -8 13 -8 7 2 -4 6 -2 12 3 12 6 0 11 -4 11 -9 0 -5 11 -8
25 -7 13 2 22 -1 19 -5 -3 -5 0 -9 5 -9 6 0 11 6 11 13 0 8 3 8 8 1 4 -6 32
-12 62 -13 30 -2 60 -6 65 -10 6 -4 25 -6 42 -5 18 1 35 -2 39 -7 3 -5 12 -5
22 0 17 8 44 8 157 -4 33 -3 98 -8 145 -9 47 -2 104 -8 128 -14 23 -5 44 -7
46 -3 5 7 149 6 430 -3 93 -4 174 -2 180 3 6 5 43 8 82 8 38 0 75 3 81 6 7 4
14 3 17 -2 4 -5 21 -5 43 -1 20 5 41 7 45 4 4 -3 8 -1 8 5 0 6 11 6 29 1 15
-4 33 -5 40 -1 12 8 127 4 149 -4 6 -2 12 0 12 5 0 5 10 9 23 9 27 -2 139 11
149 17 3 2 9 0 13 -5 3 -6 15 -7 28 -2 12 5 31 5 42 1 11 -4 29 -6 40 -4 11 2
45 3 75 4 30 0 69 0 85 1 17 1 42 2 58 2 15 1 27 4 27 7 0 8 64 5 79 -4 7 -5
16 -5 20 0 7 10 38 14 118 15 29 0 55 5 59 10 3 5 12 5 23 0 13 -7 24 -6 40 5
12 9 47 17 79 18 32 2 68 9 81 15 12 7 34 11 49 10 15 -2 33 0 40 4 6 5 17 5
22 2 6 -4 17 -1 25 5 8 7 15 9 15 5 0 -4 8 -1 17 6 11 10 14 10 9 2 -4 -7 -3
-13 1 -13 5 0 14 9 21 20 10 17 16 18 33 10 22 -12 79 6 79 25 0 5 4 4 9 -4 8
-12 12 -12 26 2 9 10 21 15 26 12 5 -4 9 -2 9 4 0 6 7 7 17 4 11 -5 14 -3 8 6
-5 10 -2 11 14 6 13 -4 29 -1 38 7 14 11 16 11 9 0 -9 -15 -8 -15 71 26 17 9
30 19 27 24 -3 4 1 5 9 2 8 -3 18 -1 22 5 3 6 16 11 29 11 13 0 31 9 41 20 10
11 24 20 32 20 8 0 12 4 8 9 -3 6 4 8 16 6 25 -5 71 23 62 38 -3 6 -1 7 5 3 6
-3 21 4 33 16 12 13 19 17 15 11 -5 -9 -2 -11 8 -7 9 3 13 11 9 17 -3 6 -1 7
6 3 13 -9 43 18 33 29 -4 5 -2 5 5 2 11 -7 77 49 84 72 3 7 11 13 19 14 8 1
45 33 83 70 37 37 67 64 67 61 0 -4 17 13 38 36 20 24 36 48 35 54 -2 6 13 21
32 34 19 12 34 25 33 30 -4 13 23 53 32 47 6 -3 7 0 4 8 -3 8 6 26 20 40 19
19 22 27 13 37 -9 9 -9 11 -1 7 11 -7 29 19 25 36 -1 7 5 16 39 56 8 10 16 24
18 32 2 7 7 16 11 19 4 3 16 24 26 48 11 23 22 42 27 42 4 0 8 13 8 29 0 16 6
34 14 40 7 6 12 23 10 38 -3 27 28 78 40 65 4 -3 4 1 1 10 -4 9 -1 27 6 40 7
13 13 34 14 48 1 14 5 31 9 38 4 7 9 29 11 49 2 20 8 39 14 43 11 6 20 40 24
83 1 9 4 17 7 17 3 0 6 8 7 18 4 73 11 105 26 122 9 11 13 20 9 20 -9 0 -7 78
2 87 3 3 6 21 6 39 0 18 5 36 10 39 6 4 8 11 5 16 -4 5 -1 9 6 9 9 0 9 3 0 14
-9 11 -8 17 6 28 21 15 28 38 12 38 -7 0 -9 9 -5 23 4 12 9 33 12 46 3 13 10
33 15 44 8 15 8 18 -1 12 -9 -6 -9 -3 -1 13 8 15 8 23 0 28 -8 4 -7 9 2 15 9
5 14 28 14 64 0 30 3 55 7 55 4 0 5 11 2 25 -2 13 0 42 5 63 5 25 5 46 -2 57
-7 13 -6 16 2 11 11 -7 15 35 13 137 -1 20 2 37 6 37 12 0 12 43 1 56 -6 7 -6
15 -1 18 5 3 8 57 7 121 -1 64 2 118 5 120 12 7 8 169 -4 177 -7 5 -4 8 7 8
15 0 15 3 5 21 -10 17 -10 23 0 26 6 3 12 9 12 14 0 6 -4 8 -9 5 -5 -4 -8 24
-6 64 2 39 -1 86 -5 105 -5 22 -4 35 2 35 6 0 4 8 -3 17 -12 15 -12 16 1 8 13
-8 13 -7 1 8 -8 10 -9 17 -3 17 11 0 10 100 -2 148 -3 13 0 22 7 22 7 0 4 5
-5 11 -13 7 -15 15 -8 33 5 13 7 46 4 72 -10 96 -10 119 1 126 6 5 6 8 -2 8
-7 0 -13 5 -13 11 0 5 6 7 13 3 9 -6 9 -4 1 7 -6 8 -10 22 -9 32 2 9 0 17 -5
17 -4 0 -7 26 -6 58 1 31 -3 60 -8 64 -8 5 -7 8 0 8 12 0 8 160 -5 170 -3 3
-6 21 -6 40 0 19 -2 46 -5 60 -4 14 -3 42 1 63 5 31 4 37 -7 33 -11 -4 -12 -1
-5 13 12 22 8 130 -6 139 -5 4 -9 19 -8 35 1 15 -2 27 -6 27 -5 0 -5 10 0 23
5 14 5 30 -1 40 -5 10 -8 25 -7 35 1 9 -1 24 -4 32 -12 30 -12 55 1 53 15 -4
15 -1 0 34 -6 15 -11 31 -10 35 1 4 -3 19 -8 32 -6 16 -6 27 0 31 7 4 6 13 0
26 -6 10 -7 19 -3 19 4 0 3 4 -4 8 -7 4 -15 30 -18 57 -4 27 -12 53 -18 57 -9
6 -8 8 2 8 10 0 11 3 2 13 -8 10 -7 17 2 27 7 8 8 11 1 7 -7 -4 -14 2 -17 13
-3 10 0 21 7 23 8 3 7 9 -4 21 -8 10 -13 31 -12 47 1 16 -3 29 -9 29 -6 0 -9
10 -8 23 2 12 0 28 -4 35 -5 6 -5 12 0 12 4 0 4 4 -2 8 -18 13 -35 51 -35 77
0 14 -4 25 -10 25 -5 0 -10 9 -10 20 0 11 -5 20 -11 20 -5 0 -7 5 -4 10 4 6 0
22 -9 35 -9 13 -16 34 -16 45 0 11 -7 23 -15 26 -8 4 -15 16 -15 29 0 12 -9
30 -19 39 -11 10 -18 28 -17 41 2 13 -5 30 -16 39 -10 9 -16 21 -13 26 3 6 1
10 -4 10 -6 0 -11 5 -11 11 0 7 -8 18 -17 26 -10 8 -12 12 -6 8 9 -4 11 -1 7
9 -3 9 -12 16 -19 16 -7 0 -24 22 -38 49 -20 38 -23 51 -14 61 7 7 7 10 2 7
-6 -3 -17 -2 -25 4 -12 7 -13 9 -1 9 8 0 -3 14 -24 30 -21 17 -47 44 -57 61
-10 16 -25 32 -33 35 -8 3 -17 14 -20 25 -4 10 -12 19 -19 19 -7 0 -21 10 -32
22 -10 12 -13 18 -7 14 9 -5 11 -2 7 9 -4 9 -13 14 -20 11 -8 -3 -11 0 -7 10
3 7 0 14 -6 14 -6 0 -11 7 -11 15 0 8 -3 14 -7 14 -21 -3 -32 2 -27 15 5 14
-30 33 -50 28 -5 -2 -6 4 -3 13 6 14 -3 19 -28 16 -6 0 -19 13 -30 29 -11 17
-26 30 -32 30 -7 0 -13 7 -13 15 0 8 -3 14 -7 13 -14 -4 -54 23 -48 32 3 6 0
7 -8 4 -8 -3 -21 2 -30 10 -9 9 -21 16 -27 16 -6 0 -13 7 -16 15 -4 8 -13 15
-20 15 -8 0 -17 7 -20 15 -4 8 -17 15 -30 15 -13 0 -31 8 -41 19 -10 10 -35
24 -55 30 -21 7 -38 17 -38 22 0 6 -4 8 -9 4 -5 -3 -12 -1 -16 5 -3 5 -15 10
-26 10 -11 0 -27 6 -34 14 -8 7 -34 17 -60 20 -25 4 -45 11 -45 16 0 4 -27 16
-60 26 -33 10 -56 22 -53 27 4 6 -1 8 -12 4 -9 -4 -24 -2 -32 4 -7 7 -16 9
-20 6 -3 -4 -12 -2 -20 4 -7 6 -13 8 -13 4 0 -4 -8 -1 -17 6 -11 10 -14 10 -9
2 4 -7 3 -13 -3 -13 -5 0 -13 5 -16 10 -4 6 -11 8 -16 5 -5 -4 -9 -1 -9 4 0 6
-5 11 -11 11 -5 0 -8 -4 -4 -9 3 -5 -8 -3 -24 5 -16 8 -46 16 -67 18 -22 2
-73 13 -114 24 -41 11 -78 18 -82 15 -5 -2 -8 0 -8 5 0 6 -26 13 -57 16 -93
10 -188 23 -188 26 0 1 -22 3 -48 5 -27 2 -60 6 -74 10 -16 4 -22 2 -18 -4 3
-7 0 -8 -9 -5 -9 3 -16 9 -16 13 0 3 -30 7 -67 7 -82 1 -180 11 -195 20 -6 4
-8 2 -5 -3 7 -10 -20 -10 -113 1 -105 13 -190 15 -190 4 0 -7 -5 -6 -15 2 -9
7 -18 10 -22 7 -3 -4 -14 -2 -24 3 -12 7 -20 7 -24 0 -4 -6 -10 -8 -15 -5 -19
12 -137 16 -163 6 -20 -8 -26 -8 -21 0 4 8 -1 9 -17 3 -35 -12 -109 -6 -120
10 -9 12 -31 -3 -23 -16 5 -7 2 -8 -7 -2 -21 13 -69 16 -206 10 -24 -1 -43 1
-43 5 0 3 -19 5 -42 3 -63 -6 -139 -6 -174 -1 -18 3 -36 1 -41 -4z m1104
-1229 c208 -22 525 -71 608 -95 28 -7 75 -17 105 -21 30 -3 111 -19 180 -35
353 -80 516 -93 739 -60 79 12 133 16 147 10 32 -12 53 -48 64 -110 5 -30 16
-92 25 -139 9 -47 24 -132 35 -190 10 -58 39 -213 65 -345 26 -132 67 -348 91
-480 25 -132 58 -305 74 -385 16 -80 34 -174 40 -210 6 -36 20 -108 31 -160
78 -372 196 -1004 206 -1100 7 -65 -7 -78 -102 -95 -429 -76 -949 -99 -1325
-59 -86 9 -538 83 -610 100 -36 8 -179 37 -319 65 -289 56 -367 61 -463 28
-101 -34 -337 -171 -620 -361 -101 -68 -105 -77 -64 -175 28 -65 147 -364 208
-518 21 -55 47 -130 58 -167 10 -37 26 -78 34 -90 9 -12 16 -32 16 -43 0 -11
7 -33 16 -50 9 -16 25 -55 35 -85 9 -30 45 -134 79 -230 88 -251 132 -399 125
-421 -8 -25 -60 -51 -155 -79 -41 -12 -110 -33 -154 -46 -86 -27 -143 -28
-156 -4 -4 8 -18 56 -30 105 -37 147 -154 485 -275 795 -31 80 -81 208 -110
285 -67 174 -99 253 -136 333 -16 34 -29 68 -29 75 0 28 -239 507 -330 662
-43 72 -90 153 -106 182 -45 80 -153 251 -203 323 -25 36 -54 81 -65 100 -10
18 -35 54 -55 80 -81 98 -220 278 -256 330 -21 30 -43 60 -49 65 -6 6 -55 64
-108 130 -53 66 -131 154 -172 196 -42 42 -76 82 -76 88 0 6 -161 173 -357
372 -305 307 -358 365 -361 392 -2 29 9 43 143 170 194 184 168 185 379 -21
l161 -158 25 23 c80 71 672 435 925 567 114 60 344 165 475 218 194 78 504
167 651 187 41 5 119 20 174 31 72 16 159 24 310 29 116 4 222 9 238 9 15 1
116 -7 224 -18z m2880 -2282 c-3 -8 -6 -5 -6 6 -1 11 2 17 5 13 3 -3 4 -12 1
-19z"/>

</g>
</svg>
