<?xml version="1.0" encoding="utf-8"?>
<!-- Generator: Adobe Illustrator 28.0.0, SVG Export Plug-In . SVG Version: 6.00 Build 0)  -->
<svg version="1.1" id="Ebene_1" xmlns="http://www.w3.org/2000/svg" xmlns:xlink="http://www.w3.org/1999/xlink" x="0px" y="0px"
	 viewBox="0 0 96.94 43.66" style="enable-background:new 0 0 96.94 43.66;" xml:space="preserve">
<style type="text/css">
	.st0{fill:#FFFFFF;}
</style>
<g>
	<g>
		<path class="st0" d="M0.04,11.28c0-1.05,0.47-1.61,1.55-1.61h10.65v2.05c0,1.05-0.56,1.55-1.67,1.55H4.28v3.89h6.88v3.37H4.28v4.3
			h8.11v2.05c0,1.05-0.56,1.52-1.64,1.52H1.59c-1.08,0-1.55-0.56-1.55-1.61V11.28z"/>
		<path class="st0" d="M14.12,11.25c0-1.02,0.44-1.58,1.52-1.58h6.17c4.39,0,6.85,2.43,6.85,6.03c0,2.6-1.29,4.51-3.75,5.39
			l4.33,6.53c0.15,0.26,0.26,0.53,0.26,0.79h-3.8c-0.79,0-1.08-0.06-1.58-0.85l-3.6-5.79h-2.17v6.64h-4.24V11.25z M18.36,13.27v4.92
			h3.16c1.79,0,3.01-0.64,3.01-2.49c0-1.79-1.23-2.43-3.01-2.43H18.36z"/>
		<path class="st0" d="M36.3,9.52c3.78,0,5.94,0.41,5.94,2.08v1.61h-5.53c-1.64,0-2.28,0.5-2.28,1.43c0,2.55,8.81,2.11,8.81,8.37
			c0,2.99-1.84,5.53-7.2,5.53c-3.37,0-6.15-0.47-6.15-2.08v-1.61h6.35c1.67,0,2.49-0.53,2.49-1.61c0-2.75-8.78-2.34-8.78-8.72
			C29.95,11.72,31.94,9.52,36.3,9.52z"/>
		<path class="st0" d="M56.09,9.67v2.11c0,1.02-0.58,1.49-1.67,1.49h-2.66V28.4h-4.24V13.27h-4.33v-2.11c0-1.02,0.56-1.49,1.64-1.49
			H56.09z"/>
		<path class="st0" d="M57.43,11.28c0-1.05,0.47-1.61,1.55-1.61h10.65v2.05c0,1.05-0.56,1.55-1.67,1.55h-6.29v3.89h6.88v3.37h-6.88
			v4.3h8.11v2.05c0,1.05-0.56,1.52-1.64,1.52h-9.16c-1.08,0-1.55-0.56-1.55-1.61V11.28z"/>
	</g>
	<g>
		<path class="st0" d="M75.03,23.36h16.71v-2.24H75.06c-0.01-0.26-0.01-5.32-0.04-7.65c-0.03-1.99,1.33-3.93,3.9-3.89
			c4.69,0.08,9.38,0.08,14.07,0c2.02-0.04,3.86,1.45,3.86,3.86c0,0.34,0,0.75,0,1.18H80.12v2.19l16.73,0c0,0.3,0.01,5.37,0,7.72
			c-0.01,2.37-1.53,3.86-3.93,3.86c-4.65,0-9.3,0-13.95,0c-2.42,0-3.93-1.51-3.94-3.93C75.03,24.13,75.03,23.79,75.03,23.36"/>
		<path class="st0" d="M85.96,7.23c-1.98,0-3.57-1.63-3.56-3.63c0.01-1.96,1.62-3.56,3.58-3.56c1.96,0,3.56,1.61,3.57,3.57
			C89.54,5.61,87.94,7.23,85.96,7.23"/>
	</g>
</g>
</svg>
